<svg xmlns="http://www.w3.org/2000/svg" viewBox="0 0 48 72">
  <desc>干净的单片樱花花瓣，边缘柔和，避免小尺寸粒子出现白刺和脏边。</desc>
  <defs>
    <linearGradient id="petalFill" x1="13" y1="8" x2="34" y2="67" gradientUnits="userSpaceOnUse">
      <stop offset="0" stop-color="#fffafd" stop-opacity=".98"/>
      <stop offset=".42" stop-color="#fdebf1" stop-opacity=".96"/>
      <stop offset=".76" stop-color="#fadce6" stop-opacity=".91"/>
      <stop offset="1" stop-color="#f7d2de" stop-opacity=".82"/>
    </linearGradient>
    <radialGradient id="petalLight" cx="20" cy="22" r="32" gradientUnits="userSpaceOnUse">
      <stop offset="0" stop-color="#ffffff" stop-opacity=".68"/>
      <stop offset=".54" stop-color="#fff4f8" stop-opacity=".24"/>
      <stop offset="1" stop-color="#f8d5df" stop-opacity="0"/>
    </radialGradient>
    <linearGradient id="petalShade" x1="39" y1="16" x2="17" y2="67" gradientUnits="userSpaceOnUse">
      <stop offset="0" stop-color="#fff9fc" stop-opacity=".18"/>
      <stop offset=".70" stop-color="#f5c7d5" stop-opacity=".12"/>
      <stop offset="1" stop-color="#efb7ca" stop-opacity=".06"/>
    </linearGradient>
  </defs>
  <path
    d="M24.1 66.4C14.3 62.3 7.2 50.4 7.3 36.7c.1-13.6 6.9-24.8 15.3-25.8 1.7-.2 2.5 2.3 3.1 4.1 1.4-2.3 4.1-5.5 7.2-4.3 8.1 3.2 10.5 17.5 7.1 31.6-2.9 12-8.8 20.6-15.9 24.1z"
    fill="url(#petalFill)"/>
  <path
    d="M24.1 66.4C14.3 62.3 7.2 50.4 7.3 36.7c.1-13.6 6.9-24.8 15.3-25.8 1.7-.2 2.5 2.3 3.1 4.1 1.4-2.3 4.1-5.5 7.2-4.3 8.1 3.2 10.5 17.5 7.1 31.6-2.9 12-8.8 20.6-15.9 24.1z"
    fill="url(#petalLight)"/>
  <path
    d="M34.2 12.1c6.5 5.3 8.5 18 5.8 30.2-2.5 11.4-8.5 20.5-15.9 24.1 6.1-6.6 9.8-15.9 11.2-26.1 1.2-8.4.1-19-1.1-28.2z"
    fill="url(#petalShade)"/>
</svg>
