<svg xmlns="http://www.w3.org/2000/svg" viewBox="0 0 64 64">
  <defs>
    <linearGradient id="leafLeft" x1="8" y1="7" x2="54" y2="57" gradientUnits="userSpaceOnUse">
      <stop offset="0" stop-color="#ffc55c" stop-opacity=".92"/>
      <stop offset=".5" stop-color="#d76431" stop-opacity=".84"/>
      <stop offset="1" stop-color="#74301f" stop-opacity=".66"/>
    </linearGradient>
  </defs>
  <path fill="url(#leafLeft)" d="M33 5.2 38.8 20.5l12.6-5.8-4.1 13.2 13.4 3.9-14.3 5.8 8.3 12-15-3.7-3.9 13.5-6.2-13.1L18.5 57.2l2.6-14.6-14.2.7 9.6-9.1L5.2 25.5l14.5-.2-3.5-13 11.8 8.2L33 5.2z"/>
  <path fill="#fff8dd" fill-opacity=".20" d="M36.5 10.8 39 22.1l8.3-3.3-8.2 9.4 12.3 3.4-14.5 2.1c1.2-7.5 1.1-15.1-.4-22.9z"/>
  <path fill="none" stroke="#fff7d8" stroke-opacity=".30" stroke-linecap="round" stroke-width="1.5" d="M32.5 15.1c.4 11.9.1 24.2-.7 36.7M20.8 27.2c7.1 3.4 14.4 4.7 22.2 4.2M20.1 41.4c7.1-1.8 14.2-1.7 21.6.3"/>
</svg>
