<svg xmlns="http://www.w3.org/2000/svg" viewBox="0 0 64 64">
  <defs>
    <linearGradient id="leafRight" x1="56" y1="7" x2="10" y2="57" gradientUnits="userSpaceOnUse">
      <stop offset="0" stop-color="#ffc55c" stop-opacity=".92"/>
      <stop offset=".5" stop-color="#d76431" stop-opacity=".84"/>
      <stop offset="1" stop-color="#74301f" stop-opacity=".66"/>
    </linearGradient>
  </defs>
  <path fill="url(#leafRight)" d="M31 5.2 25.2 20.5l-12.6-5.8 4.1 13.2-13.4 3.9 14.3 5.8-8.3 12 15-3.7 3.9 13.5 6.2-13.1 11.1 10.9-2.6-14.6 14.2.7-9.6-9.1 11.3-8.7-14.5-.2 3.5-13-11.8 8.2L31 5.2z"/>
  <path fill="#fff8dd" fill-opacity=".20" d="M27.5 10.8 25 22.1l-8.3-3.3 8.2 9.4-12.3 3.4 14.5 2.1c-1.2-7.5-1.1-15.1.4-22.9z"/>
  <path fill="none" stroke="#fff7d8" stroke-opacity=".30" stroke-linecap="round" stroke-width="1.5" d="M31.5 15.1c-.4 11.9-.1 24.2.7 36.7M43.2 27.2c-7.1 3.4-14.4 4.7-22.2 4.2M43.9 41.4c-7.1-1.8-14.2-1.7-21.6.3"/>
</svg>
