<svg xmlns="http://www.w3.org/2000/svg" viewBox="0 0 48 72">
  <desc>单片樱花花瓣翻起姿态，使用较窄弯面和浅粉明暗表现迎风翻面。</desc>
  <defs>
    <linearGradient id="foldFill" x1="15" y1="10" x2="32" y2="66" gradientUnits="userSpaceOnUse">
      <stop offset="0" stop-color="#fff9fd" stop-opacity=".98"/>
      <stop offset=".48" stop-color="#fce7ee" stop-opacity=".94"/>
      <stop offset=".80" stop-color="#f8d9e2" stop-opacity=".88"/>
      <stop offset="1" stop-color="#f4ced9" stop-opacity=".80"/>
    </linearGradient>
    <linearGradient id="foldShade" x1="32" y1="12" x2="20" y2="66" gradientUnits="userSpaceOnUse">
      <stop offset="0" stop-color="#ffffff" stop-opacity=".48"/>
      <stop offset=".46" stop-color="#f5afc5" stop-opacity=".24"/>
      <stop offset="1" stop-color="#df86a7" stop-opacity=".20"/>
    </linearGradient>
    <linearGradient id="foldRidge" x1="20" y1="12" x2="29" y2="66" gradientUnits="userSpaceOnUse">
      <stop offset="0" stop-color="#ffffff" stop-opacity=".86"/>
      <stop offset=".42" stop-color="#fff5fa" stop-opacity=".44"/>
      <stop offset=".56" stop-color="#f0a8be" stop-opacity=".24"/>
      <stop offset="1" stop-color="#f4c8d6" stop-opacity="0"/>
    </linearGradient>
    <radialGradient id="foldGlow" cx="22" cy="23" r="26" gradientUnits="userSpaceOnUse">
      <stop offset="0" stop-color="#ffffff" stop-opacity=".70"/>
      <stop offset=".64" stop-color="#fff2f6" stop-opacity=".22"/>
      <stop offset="1" stop-color="#f7d3de" stop-opacity="0"/>
    </radialGradient>
  </defs>
  <path
    d="M24.2 66.2c-7.3-5.1-11.5-18.4-10.5-32.1 1-12.9 5.9-22.5 11.8-23.3 1.1-.1 1.8 2.7 2.3 4.7 1.2-2.4 3.2-5.4 5.4-4.1 5.4 3.5 6.3 16.8 3 30.4-2.8 11.7-7 20.4-12 24.4z"
    fill="url(#foldFill)"/>
  <path
    d="M24.2 66.2c-7.3-5.1-11.5-18.4-10.5-32.1 1-12.9 5.9-22.5 11.8-23.3 1.1-.1 1.8 2.7 2.3 4.7 1.2-2.4 3.2-5.4 5.4-4.1 5.4 3.5 6.3 16.8 3 30.4-2.8 11.7-7 20.4-12 24.4z"
    fill="url(#foldGlow)"/>
  <path
    d="M32.7 12.2c4.4 5.9 5.2 17.8 3.5 29.6-1.9 12.1-6.8 20.8-12 24.4 4.8-7.8 6.8-19.3 7.2-31.2.3-8.2.1-15.2 1.3-22.8z"
    fill="url(#foldShade)"/>
  <path
    d="M26.4 12.4c1.8 8.8 2.2 19.3 1.3 31.2-.5 7.8-1.8 15.4-3.5 22.6-2.3-7.9-3-18.4-2.2-30.2.6-9.1 1.8-17.2 4.4-23.6z"
    fill="url(#foldRidge)"/>
  <path
    d="M27.3 16.6c-.9 13.2-1.6 31.4-3 48"
    fill="none"
    stroke="#f0cbd7"
    stroke-width=".58"
    stroke-linecap="round"
    stroke-opacity=".20"/>
  <path
    d="M20.9 27.8c.7 7.9 1.4 16.3 2.8 25.7M32 25.6c-1.4 8.3-3.3 17.4-5.8 27"
    fill="none"
    stroke="#ffffff"
    stroke-width=".64"
    stroke-linecap="round"
    stroke-opacity=".54"/>
  <path
    d="M24.2 66.2c-7.3-5.1-11.5-18.4-10.5-32.1 1-12.9 5.9-22.5 11.8-23.3 1.1-.1 1.8 2.7 2.3 4.7 1.2-2.4 3.2-5.4 5.4-4.1 5.4 3.5 6.3 16.8 3 30.4-2.8 11.7-7 20.4-12 24.4z"
    fill="none"
    stroke="#fff6fa"
    stroke-width=".58"
    stroke-opacity="0"/>
</svg>
