<svg xmlns="http://www.w3.org/2000/svg" viewBox="0 0 54 72">
  <desc>蒲公英絮状粒子贴图，细丝冠毛和浅色种子用于随风漂浮效果。</desc>
  <defs>
    <linearGradient id="stem" x1="26" y1="23" x2="30" y2="70" gradientUnits="userSpaceOnUse">
      <stop offset="0" stop-color="#fffef1" stop-opacity=".92"/>
      <stop offset=".62" stop-color="#d9c78f" stop-opacity=".72"/>
      <stop offset="1" stop-color="#9d8153" stop-opacity=".84"/>
    </linearGradient>
    <radialGradient id="tuft" cx="27" cy="18" r="25" gradientUnits="userSpaceOnUse">
      <stop offset="0" stop-color="#ffffff" stop-opacity=".92"/>
      <stop offset=".64" stop-color="#edf8ff" stop-opacity=".54"/>
      <stop offset="1" stop-color="#d7eef8" stop-opacity="0"/>
    </radialGradient>
  </defs>
  <circle cx="27" cy="19" r="23" fill="url(#tuft)"/>
  <g fill="none" stroke="#f7fbff" stroke-linecap="round">
    <path stroke-opacity=".88" stroke-width="1.2" d="M27 35 27 3"/>
    <path stroke-opacity=".78" stroke-width="1.05" d="M27 35 15 7M27 35 39 7"/>
    <path stroke-opacity=".72" stroke-width=".95" d="M27 35 7 17M27 35 47 17"/>
    <path stroke-opacity=".66" stroke-width=".85" d="M27 35 11 28M27 35 43 28"/>
    <path stroke-opacity=".58" stroke-width=".75" d="M27 35 20 2M27 35 34 2"/>
  </g>
  <g fill="#ffffff" opacity=".9">
    <circle cx="27" cy="3" r="1.35"/>
    <circle cx="15" cy="7" r="1.15"/>
    <circle cx="39" cy="7" r="1.15"/>
    <circle cx="7" cy="17" r="1"/>
    <circle cx="47" cy="17" r="1"/>
    <circle cx="11" cy="28" r=".9"/>
    <circle cx="43" cy="28" r=".9"/>
    <circle cx="20" cy="2" r=".86"/>
    <circle cx="34" cy="2" r=".86"/>
  </g>
  <path fill="none" stroke="url(#stem)" stroke-linecap="round" stroke-width="1.8" d="M27 34c.9 8.5 1.2 17.5 1 27.5"/>
  <path fill="#b59054" fill-opacity=".9" d="M27.9 60.2c3 1.6 4.5 3.7 4.4 6.2-.1 2.2-1.7 3.7-4.2 3.7-2.8-.1-4.5-1.9-4.5-4.3 0-2.3 1.4-4.1 4.3-5.6z"/>
  <path fill="#fff4c7" fill-opacity=".54" d="M27.9 61.7c1.4.9 2.2 2 2.1 3.4 0 1.1-.7 1.8-1.8 1.8-1.3 0-2-.9-2-2.1 0-1.1.6-2.1 1.7-3.1z"/>
</svg>
