<svg xmlns="http://www.w3.org/2000/svg" viewBox="0 0 64 64">
  <defs>
    <linearGradient id="leaf" x1="12" y1="6" x2="52" y2="58" gradientUnits="userSpaceOnUse">
      <stop offset="0" stop-color="#f5b24a" stop-opacity=".92"/>
      <stop offset=".48" stop-color="#d76935" stop-opacity=".84"/>
      <stop offset="1" stop-color="#873421" stop-opacity=".62"/>
    </linearGradient>
  </defs>
  <path fill="url(#leaf)" d="M32 4.8 37 20l13-7-5.5 14.2 14.7 2.5-13.6 7.1 9.3 11.9-15.2-3-2.8 14.5L31.5 47 20 58.4l1.8-15-14.9 1.9 9.9-10.4L4.8 27.1l14.2-1.3-4.7-14 12.1 8.3L32 4.8z"/>
  <path fill="none" stroke="#fff5d6" stroke-opacity=".28" stroke-linecap="round" stroke-width="1.5" d="M31.6 15.3c.1 12.2.3 24.3.5 36.5M20.2 27.4c7.6 3.9 14.9 5.4 22.7 5.1M20.7 42.1c7.5-2.2 14.4-2.5 21.8-.7"/>
</svg>
